<svg width="139" height="74" viewBox="0 0 139 74" fill="none" xmlns="http://www.w3.org/2000/svg">
<g clip-path="url(#clip0_11_71)">
<path fill-rule="evenodd" clip-rule="evenodd" d="M44.7851 1.42243C40.988 -0.474142 36.5468 -0.474142 32.7498 1.42243C25.0878 5.24943 12.0354 12.0229 2.98341 16.5611C1.15268 17.4755 0 19.3382 0 21.3703C0 23.4023 1.15268 25.265 2.98341 26.1794C24.7488 37.0508 76.4161 63.7043 94.2149 72.5776C98.012 74.4741 102.453 74.4741 106.25 72.5776C113.912 68.7506 126.931 61.9771 136.017 57.4389C137.847 56.5245 139 54.6618 139 52.6297C139 50.5977 137.847 48.735 136.017 47.8206C114.251 36.9492 62.5839 10.2957 44.7851 1.42243Z" fill="#8FB1DD"/>
</g>
<defs>
<clipPath id="clip0_11_71">
<rect width="139" height="74" fill="white"/>
</clipPath>
</defs>
</svg>
