<svg width="81" height="73" viewBox="0 0 81 73" fill="none" xmlns="http://www.w3.org/2000/svg">
<g clip-path="url(#clip0_11_80)">
<path fill-rule="evenodd" clip-rule="evenodd" d="M16.6325 1.16882C13.1979 -0.536937 9.12722 -0.378997 5.88341 1.61105C2.60779 3.6011 0.572451 7.13896 0.540649 10.9295C0.381638 25.7759 0.159023 46.8767 1.27362e-05 61.8495C-0.0317894 65.7032 1.93994 69.3043 5.21556 71.3259C8.49118 73.3791 12.6255 73.5686 16.0919 71.8313C34.9505 62.4496 64.2085 47.4137 78.5195 40.3064C80.0142 39.5483 80.9682 38.0321 80.9682 36.3579C80.9682 34.6838 80.0142 33.1675 78.5195 32.4094C64.3039 25.3337 35.2686 10.4241 16.6325 1.16882Z" fill="#CB5143"/>
</g>
<defs>
<clipPath id="clip0_11_80">
<rect width="81" height="73" fill="white"/>
</clipPath>
</defs>
</svg>
