<svg width="141" height="74" viewBox="0 0 141 74" fill="none" xmlns="http://www.w3.org/2000/svg">
<g clip-path="url(#clip0_11_74)">
<path fill-rule="evenodd" clip-rule="evenodd" d="M73.1661 1.13788C76.175 -0.379293 79.7553 -0.379293 82.8023 1.13788C94.5713 6.97898 124.356 22.2645 138.677 29.3952C140.124 30.1158 141.038 31.5951 141.038 33.226C141.038 34.857 140.124 36.3362 138.677 37.0569C121.652 45.5151 81.812 65.9211 67.91 72.8621C64.9011 74.3793 61.3209 74.3793 58.2739 72.8621C46.5049 67.021 16.7204 51.7355 2.39951 44.6048C0.914101 43.8842 0 42.4049 0 40.774C0 39.143 0.914101 37.6638 2.36143 36.9431C19.3865 28.4469 59.2261 8.07893 73.1661 1.13788Z" fill="#E95A25"/>
</g>
<defs>
<clipPath id="clip0_11_74">
<rect width="141" height="74" fill="white"/>
</clipPath>
</defs>
</svg>
