<svg width="144" height="177" viewBox="0 0 144 177" fill="none" xmlns="http://www.w3.org/2000/svg">
<g clip-path="url(#clip0_3_142)">
<path fill-rule="evenodd" clip-rule="evenodd" d="M-17.2203 2.70421C-10.0147 -0.888261 -1.56117 -0.888261 5.64442 2.70421C33.5812 16.7108 104.389 53.2814 138.364 70.3154C141.826 72.0511 144 75.6032 144 79.4782C144 83.3532 141.826 86.9053 138.364 88.641C97.9083 108.904 3.30966 157.705 -29.7798 174.295C-36.9854 177.888 -45.4388 177.888 -52.6444 174.295C-80.5812 160.289 -151.389 123.718 -185.364 106.684C-188.826 104.948 -191 101.437 -191 97.5213C-191 93.6059 -188.826 90.0942 -185.364 88.3585C-144.908 68.0953 -50.3097 19.2942 -17.2203 2.70421Z" fill="#E95A25"/>
</g>
<defs>
<clipPath id="clip0_3_142">
<rect width="335" height="177" fill="white" transform="translate(-191)"/>
</clipPath>
</defs>
</svg>
