<svg width="374" height="179" viewBox="0 0 374 179" fill="none" xmlns="http://www.w3.org/2000/svg">
<path fill-rule="evenodd" clip-rule="evenodd" d="M120.501 3.44073C110.284 -1.14691 98.3346 -1.14691 88.118 3.44073C67.5024 12.6979 32.3829 29.0824 8.02732 40.06C3.10146 42.2719 0 46.7776 0 51.6929C0 56.6082 3.10146 61.114 8.02732 63.3259C66.5902 89.6229 205.609 154.096 253.499 175.559C263.716 180.147 275.665 180.147 285.882 175.559C306.498 166.302 341.526 149.918 365.973 138.94C370.899 136.728 374 132.222 374 127.307C374 122.392 370.899 117.886 365.973 115.674C307.41 89.3771 168.391 24.9043 120.501 3.44073Z" fill="#FBBF10"/>
</svg>
