<svg id="Logo" xmlns="http://www.w3.org/2000/svg" xmlns:xlink="http://www.w3.org/1999/xlink" width="202.034" height="73.201" viewBox="0 0 202.034 73.201">
  <defs>
    <clipPath id="clip-path">
      <rect id="Rectangle_90" data-name="Rectangle 90" width="202.034" height="73.201" fill="none"/>
    </clipPath>
  </defs>
  <g id="Group_1440" data-name="Group 1440" clip-path="url(#clip-path)">
    <g id="beeldmerk" transform="translate(-0.001 5.067)">
      <path id="Path_17502" data-name="Path 17502" d="M61.813,12.455c6.158-2.966,16.156-2.966,22.314,0s6.158,7.78,0,10.746-16.156,2.965-22.314,0-6.158-7.781,0-10.746" transform="translate(-27.784 -10.231)" fill="#fbbf10" fill-rule="evenodd"/>
      <path id="Path_17503" data-name="Path 17503" d="M61.761,51.548a3.377,3.377,0,0,1,2.919,0c3.567,1.718,12.614,6.206,16.953,8.3a1.237,1.237,0,0,1,0,2.249C76.467,64.58,64.38,70.568,60.154,72.6a3.377,3.377,0,0,1-2.919,0c-3.568-1.718-12.615-6.206-16.953-8.3a1.237,1.237,0,0,1,0-2.25C45.448,59.571,57.535,53.583,61.761,51.548Z" transform="translate(-19.217 -30.917)" fill="#e95a25" fill-rule="evenodd"/>
      <path id="Path_17504" data-name="Path 17504" d="M6.049,23.252a4.18,4.18,0,0,0-3.916.159A3.867,3.867,0,0,0,.2,26.694C.14,31.923.058,39.364,0,44.635a3.862,3.862,0,0,0,1.9,3.343,4.178,4.178,0,0,0,3.952.182c6.855-3.3,17.492-8.605,22.689-11.108a1.532,1.532,0,0,0,0-2.786C23.366,31.773,12.813,26.51,6.049,23.252" transform="translate(0 -16.595)" fill="#cb5143" fill-rule="evenodd"/>
      <path id="Path_17505" data-name="Path 17505" d="M16.323,85.939a4.747,4.747,0,0,0-4.106,0C9.607,87.2,5.163,89.422,2.07,90.912a1.74,1.74,0,0,0,0,3.164c7.423,3.575,25.038,12.333,31.107,15.256a4.747,4.747,0,0,0,4.106,0c2.61-1.257,7.054-3.483,10.147-4.972a1.741,1.741,0,0,0,0-3.164C40.006,97.619,22.392,88.862,16.323,85.939Z" transform="translate(-0.512 -48.208)" fill="#8fb1dd" fill-rule="evenodd"/>
    </g>
    <g id="woordmerk" transform="translate(76.556 0)">
      <path id="Path_17506" data-name="Path 17506" d="M194.624,27.747a9.135,9.135,0,0,1-4.728-8.058A9.547,9.547,0,0,1,191.078,15a8.9,8.9,0,0,1,3.331-3.415,9.4,9.4,0,0,1,4.882-1.272,10.464,10.464,0,0,1,5.143,1.2,8.128,8.128,0,0,1,3.3,3.312,10.066,10.066,0,0,1,1.135,4.835,11.722,11.722,0,0,1-.092,1.36.6.6,0,0,1-.676.591H196.067a3.8,3.8,0,0,0,1.581,1.73,4.658,4.658,0,0,0,2.318.576,5.056,5.056,0,0,0,1.55-.222,5.632,5.632,0,0,0,1.366-.665.718.718,0,0,1,.4-.148.611.611,0,0,1,.492.3l2.21,3.046a.66.66,0,0,1,.153.384.648.648,0,0,1-.276.473,10.856,10.856,0,0,1-11.237.666m4.881-12.552a3.484,3.484,0,0,0-3.5,2.247h6.939a3.375,3.375,0,0,0-3.439-2.247" transform="translate(-168.803 -5.206)" fill="#ffffff"/>
      <path id="Path_17507" data-name="Path 17507" d="M152.685,71.739a12.449,12.449,0,0,1-3.531-2.129.637.637,0,0,1-.277-.444.659.659,0,0,1,.185-.444l2.272-2.779a.545.545,0,0,1,.46-.266.675.675,0,0,1,.43.177,9.062,9.062,0,0,0,2.134,1.064,6.736,6.736,0,0,0,2.226.414q1.075,0,1.075-.562,0-.325-.521-.68a10.733,10.733,0,0,0-2.119-.916,10.853,10.853,0,0,1-3.807-2.1,4.644,4.644,0,0,1-1.5-3.667,5.351,5.351,0,0,1,.768-2.794,5.451,5.451,0,0,1,2.348-2.07,8.687,8.687,0,0,1,3.884-.784,9.354,9.354,0,0,1,3.223.606,8.549,8.549,0,0,1,2.948,1.819.588.588,0,0,1,.215.414.612.612,0,0,1-.215.444l-2.855,2.868a.629.629,0,0,1-.43.207.765.765,0,0,1-.492-.207,4.308,4.308,0,0,0-1.212-.665,4.066,4.066,0,0,0-1.4-.252q-1.075,0-1.075.591,0,.326.583.621a17.99,17.99,0,0,0,2.241.828,9.47,9.47,0,0,1,3.838,2.1,4.758,4.758,0,0,1,1.321,3.549,5.537,5.537,0,0,1-.768,2.809,5.629,5.629,0,0,1-2.272,2.144,7.449,7.449,0,0,1-3.592.813,11.266,11.266,0,0,1-4.083-.71" transform="translate(-148.878 -27.135)" fill="#ffffff"/>
      <path id="Path_17508" data-name="Path 17508" d="M180.344,71.2V54.467q0-.592.644-.592h3.561a.819.819,0,0,1,.768.444l.491.651A9.4,9.4,0,0,1,191.12,53.4a6.358,6.358,0,0,1,5.4,2.484,8.77,8.77,0,0,1,6.324-2.484,6.376,6.376,0,0,1,5.082,2.144q1.857,2.144,1.857,6.254v9.4q0,.621-.645.621h-4.7q-.645,0-.645-.621V61.978a3.555,3.555,0,0,0-.676-2.306,2.425,2.425,0,0,0-2-.828,2.8,2.8,0,0,0-2.088.843,3.443,3.443,0,0,0-.983,2.025V71.2q0,.621-.644.621h-4.7q-.645,0-.645-.621V61.978a3.613,3.613,0,0,0-.66-2.306,2.382,2.382,0,0,0-1.98-.828,2.828,2.828,0,0,0-2.241.991,3.43,3.43,0,0,0-.86,2.321V71.2a.607.607,0,0,1-.169.458.657.657,0,0,1-.476.163h-4.7q-.645,0-.644-.621" transform="translate(-164.164 -26.954)" fill="#ffffff"/>
      <path id="Path_17509" data-name="Path 17509" d="M244.826,71.133a9.611,9.611,0,0,1-3.577-3.4,8.767,8.767,0,0,1-1.32-4.687,8.618,8.618,0,0,1,1.336-4.672A9.648,9.648,0,0,1,244.857,55a9.989,9.989,0,0,1,4.9-1.243,7.84,7.84,0,0,1,4.36,1.213l.522-.473a3.523,3.523,0,0,1,.369-.311.671.671,0,0,1,.4-.134h3.439c.43,0,.645.2.645.592V71.384a.609.609,0,0,1-.169.459.657.657,0,0,1-.476.162H255.28a.787.787,0,0,1-.4-.089,2.24,2.24,0,0,1-.4-.325l-.43-.385a7.778,7.778,0,0,1-4.3,1.183,9.958,9.958,0,0,1-4.928-1.256m7.891-5.308a3.539,3.539,0,0,0,1.151-2.72,3.635,3.635,0,0,0-1.151-2.75,4.215,4.215,0,0,0-5.665,0,3.658,3.658,0,0,0-1.136,2.75,3.6,3.6,0,0,0,1.105,2.735,3.935,3.935,0,0,0,2.825,1.05,4.069,4.069,0,0,0,2.871-1.065" transform="translate(-193.108 -27.135)" fill="#ffffff"/>
      <path id="Path_17510" data-name="Path 17510" d="M283.454,71.384V54.648q0-.592.645-.592h3.562a.818.818,0,0,1,.767.444l.922,1.36a5.155,5.155,0,0,1,4.482-2.1,7.573,7.573,0,0,1,3.776,1.065.532.532,0,0,1,.338.473.538.538,0,0,1-.123.355l-2.088,3.785a.553.553,0,0,1-.491.355.965.965,0,0,1-.369-.119,3.886,3.886,0,0,0-1.934-.562,3.257,3.257,0,0,0-1.688.473,3.517,3.517,0,0,0-1.305,1.434,5,5,0,0,0-.507,2.351v8.013a.607.607,0,0,1-.168.458.659.659,0,0,1-.477.163h-4.7q-.645,0-.645-.621" transform="translate(-214.252 -27.135)" fill="#ffffff"/>
      <path id="Path_17511" data-name="Path 17511" d="M153.531,114.638a9.043,9.043,0,0,1-3.423-3.4,9.2,9.2,0,0,1-1.228-4.657,9.316,9.316,0,0,1,1.228-4.717,9.047,9.047,0,0,1,3.423-3.4,9.861,9.861,0,0,1,4.989-1.256,10.505,10.505,0,0,1,6.232,1.893.589.589,0,0,1,.277.472.661.661,0,0,1-.154.384L162.6,103.15a.624.624,0,0,1-.492.266.882.882,0,0,1-.429-.118,5.379,5.379,0,0,0-1.336-.651,5.312,5.312,0,0,0-1.581-.207,3.784,3.784,0,0,0-1.949.532,3.933,3.933,0,0,0-1.443,1.479,4.235,4.235,0,0,0-.537,2.129,4.006,4.006,0,0,0,.553,2.085,4.081,4.081,0,0,0,1.458,1.464,3.729,3.729,0,0,0,1.919.532,5.349,5.349,0,0,0,1.566-.207,5.848,5.848,0,0,0,1.351-.621.861.861,0,0,1,.429-.148.536.536,0,0,1,.461.3l2.3,3.164a.659.659,0,0,1,.184.444.485.485,0,0,1-.215.355,10.482,10.482,0,0,1-6.355,1.951,9.8,9.8,0,0,1-4.958-1.256" transform="translate(-148.878 -49.064)" fill="#ffffff"/>
      <path id="Path_17512" data-name="Path 17512" d="M184.107,114.578a9.6,9.6,0,0,1-3.577-3.4,8.767,8.767,0,0,1-1.32-4.687,8.619,8.619,0,0,1,1.335-4.672,9.656,9.656,0,0,1,3.592-3.371,9.987,9.987,0,0,1,4.9-1.242,7.844,7.844,0,0,1,4.36,1.212l.521-.473a3.526,3.526,0,0,1,.369-.311.669.669,0,0,1,.4-.133h3.438q.645,0,.645.592v16.736a.606.606,0,0,1-.169.459.657.657,0,0,1-.476.162H194.56a.793.793,0,0,1-.4-.089,2.269,2.269,0,0,1-.4-.325l-.43-.384a7.775,7.775,0,0,1-4.3,1.183,9.951,9.951,0,0,1-4.928-1.256m7.89-5.308a3.541,3.541,0,0,0,1.151-2.72A3.636,3.636,0,0,0,192,103.8a4.214,4.214,0,0,0-5.664,0,3.657,3.657,0,0,0-1.136,2.75,3.6,3.6,0,0,0,1.106,2.735,3.932,3.932,0,0,0,2.824,1.05A4.069,4.069,0,0,0,192,109.271" transform="translate(-163.613 -49.064)" fill="#ffffff"/>
      <path id="Path_17513" data-name="Path 17513" d="M222.735,114.648V97.912q0-.592.644-.592h3.561a.819.819,0,0,1,.768.444l.491.651a9.4,9.4,0,0,1,5.311-1.568,6.358,6.358,0,0,1,5.4,2.484,8.77,8.77,0,0,1,6.324-2.484,6.376,6.376,0,0,1,5.082,2.144q1.857,2.144,1.857,6.254v9.4q0,.621-.645.621h-4.7q-.645,0-.645-.621v-9.226a3.555,3.555,0,0,0-.676-2.306,2.425,2.425,0,0,0-2-.828,2.8,2.8,0,0,0-2.088.843,3.446,3.446,0,0,0-.983,2.025v9.492q0,.621-.644.621h-4.7q-.645,0-.645-.621v-9.226a3.613,3.613,0,0,0-.66-2.306,2.382,2.382,0,0,0-1.98-.828,2.828,2.828,0,0,0-2.242.991,3.43,3.43,0,0,0-.86,2.321v9.048a.605.605,0,0,1-.169.458.657.657,0,0,1-.476.163h-4.7q-.645,0-.644-.621" transform="translate(-184.757 -48.883)" fill="#ffffff"/>
      <path id="Path_17514" data-name="Path 17514" d="M328.541,115a6.876,6.876,0,0,1-2.656-2.853,9.24,9.24,0,0,1-.936-4.258V98.395q0-.592.645-.592h4.7q.613,0,.614.592v8.841a3.707,3.707,0,0,0,.875,2.573,2.962,2.962,0,0,0,2.318.976,3.8,3.8,0,0,0,1.888-.473,3.613,3.613,0,0,0,1.321-1.227,2.872,2.872,0,0,0,.476-1.552V98.395q0-.592.645-.592h4.7q.645,0,.645.592v16.736q0,.621-.645.621h-3.562a.852.852,0,0,1-.768-.473l-.8-1.271a9.3,9.3,0,0,1-2.625,1.449,8.213,8.213,0,0,1-2.839.562,7.668,7.668,0,0,1-3.991-1.02" transform="translate(-234.409 -49.365)" fill="#ffffff"/>
      <path id="Path_17515" data-name="Path 17515" d="M368.46,115.185a12.447,12.447,0,0,1-3.531-2.129.637.637,0,0,1-.277-.444.659.659,0,0,1,.185-.444l2.272-2.779a.545.545,0,0,1,.46-.266.675.675,0,0,1,.43.177,9.063,9.063,0,0,0,2.134,1.064,6.736,6.736,0,0,0,2.226.414q1.075,0,1.075-.562,0-.325-.521-.68a10.732,10.732,0,0,0-2.119-.916,10.852,10.852,0,0,1-3.807-2.1,4.643,4.643,0,0,1-1.5-3.667,5.352,5.352,0,0,1,.768-2.794,5.452,5.452,0,0,1,2.349-2.07,8.687,8.687,0,0,1,3.884-.784,9.353,9.353,0,0,1,3.223.606,8.55,8.55,0,0,1,2.948,1.819.588.588,0,0,1,.215.414.612.612,0,0,1-.215.444l-2.855,2.868a.629.629,0,0,1-.43.207.765.765,0,0,1-.492-.207,4.309,4.309,0,0,0-1.212-.665,4.066,4.066,0,0,0-1.4-.252q-1.075,0-1.075.591,0,.326.583.621a17.989,17.989,0,0,0,2.241.828,9.469,9.469,0,0,1,3.838,2.1,4.758,4.758,0,0,1,1.321,3.549,5.537,5.537,0,0,1-.768,2.809,5.628,5.628,0,0,1-2.272,2.144,7.449,7.449,0,0,1-3.592.813,11.265,11.265,0,0,1-4.083-.71" transform="translate(-253.698 -49.064)" fill="#ffffff"/>
      <path id="Path_17516" data-name="Path 17516" d="M165.881,6.35A9.906,9.906,0,0,0,161,5.108a9.376,9.376,0,0,0-3.776.71V.54a.56.56,0,0,0-.812-.482c-1.742.839-3.4,1.671-4.763,2.336a.66.66,0,0,0-.381.594V22.733a.633.633,0,0,0,.645.62h3.561a.627.627,0,0,0,.384-.1,2.259,2.259,0,0,0,.353-.37l.337-.443a8.073,8.073,0,0,0,4.452,1.3,9.871,9.871,0,0,0,4.912-1.256,9.649,9.649,0,0,0,3.562-3.4,8.768,8.768,0,0,0,1.321-4.687,8.621,8.621,0,0,0-1.335-4.672,9.7,9.7,0,0,0-3.577-3.371M163.7,17.188a3.934,3.934,0,0,1-2.825,1.05,4.027,4.027,0,0,1-2.839-1.064,3.54,3.54,0,0,1-1.151-2.721,3.657,3.657,0,0,1,1.135-2.75,4.213,4.213,0,0,1,5.665,0,3.683,3.683,0,0,1,1.121,2.75,3.6,3.6,0,0,1-1.106,2.735" transform="translate(-150.038 0)" fill="#ffffff"/>
      <path id="Path_17517" data-name="Path 17517" d="M321.3,49.851h-2.579V46.069a.664.664,0,0,0-.963-.571c-1.725.831-3.277,1.616-4.493,2.2a1.029,1.029,0,0,0-.592.927v1.225h-1.228q-.645,0-.645.592v4.11a.634.634,0,0,0,.645.621H312.7V67.179a.6.6,0,0,0,.169.458.657.657,0,0,0,.476.163h4.7a.633.633,0,0,0,.644-.621V55.174h2.61a.633.633,0,0,0,.645-.621v-4.11q0-.592-.645-.592" transform="translate(-227.535 -22.93)" fill="#ffffff"/>
      <path id="Path_17518" data-name="Path 17518" d="M290.7,119.056v-3.93a9.03,9.03,0,0,0,3.746.709,9.867,9.867,0,0,0,4.912-1.256,9.653,9.653,0,0,0,3.561-3.4,8.776,8.776,0,0,0,1.32-4.687,8.618,8.618,0,0,0-1.335-4.672,9.69,9.69,0,0,0-3.577-3.371,9.9,9.9,0,0,0-4.881-1.242,8.111,8.111,0,0,0-4.482,1.242l-.43-.5a1.427,1.427,0,0,0-.353-.34.783.783,0,0,0-.414-.1h-3.408q-.645,0-.645.592v23.5a.7.7,0,0,0,1.007.6c1.61-.776,3.1-1.524,4.329-2.118a1.132,1.132,0,0,0,.651-1.018m.768-15.256a4.213,4.213,0,0,1,5.664,0,3.684,3.684,0,0,1,1.121,2.75,3.6,3.6,0,0,1-1.106,2.735,3.934,3.934,0,0,1-2.825,1.05,4.029,4.029,0,0,1-2.84-1.065,3.543,3.543,0,0,1-1.151-2.721,3.657,3.657,0,0,1,1.136-2.75" transform="translate(-214.862 -49.064)" fill="#ffffff"/>
    </g>
  </g>
</svg>
