<svg width="560" height="268" viewBox="0 0 560 268" fill="none" xmlns="http://www.w3.org/2000/svg">
<path fill-rule="evenodd" clip-rule="evenodd" d="M180.429 5.15149C165.132 -1.71716 147.239 -1.71716 131.941 5.15149C101.073 19.0114 48.4878 43.5423 12.0195 59.978C4.6439 63.2897 0 70.0357 0 77.395C0 84.7542 4.6439 91.5002 12.0195 94.8119C99.7073 134.184 307.863 230.713 379.571 262.849C394.868 269.717 412.761 269.717 428.059 262.849C458.927 248.989 511.376 224.458 547.98 208.022C555.356 204.71 560 197.964 560 190.605C560 183.246 555.356 176.5 547.98 173.188C460.293 133.816 252.137 37.287 180.429 5.15149Z" fill="#8FB1DD"/>
</svg>
